<?xml version="1.0" encoding="UTF-8"?>
<svg xmlns="http://www.w3.org/2000/svg" viewBox="0 0 64 64">
  <defs>
    <linearGradient id="c" x1="0" y1="0" x2="1" y2="1">
      <stop offset="0%"   stop-color="#FFFFFF"/>
      <stop offset="45%"  stop-color="#9A9A9A"/>
      <stop offset="75%"  stop-color="#555555"/>
      <stop offset="100%" stop-color="#E0E0E0"/>
    </linearGradient>
  </defs>
  <rect width="64" height="64" rx="10" fill="#000"/>
  <!-- Stem -->
  <path d="M16 10 C 20 8, 25 9, 27 13 L 30 18 L 30 42 C 30 46, 26 49, 22 49 C 18 49, 14 46, 14 42 L 14 14 C 14 12, 15 11, 16 10 Z" fill="url(#c)"/>
  <!-- Loop -->
  <path d="M22 39 C 34 39, 44 41, 50 46 C 54 49, 55 52, 53 54 C 50 57, 42 57, 34 55 C 26 53, 20 49, 18 45 C 16 42, 17 40, 22 39 Z" fill="url(#c)"/>
  <!-- Highlight -->
  <path d="M22 11 C 25 10, 28 12, 29 15 L 29 22 L 17 22 L 17 14 C 17 12, 19 11, 22 11 Z" fill="#FFF" opacity="0.25"/>
</svg>
